<svg xmlns="http://www.w3.org/2000/svg" viewBox="0 0 40 40" fill="none">
  <circle cx="20" cy="20" r="19" fill="white" stroke="#333" strokeWidth="1"/>
  <!-- Colorful hands representing children -->
  <path d="M8 28 L8 18 Q8 16 10 16 L12 16 Q14 16 14 18 L14 28 Q14 30 12 30 L10 30 Q8 30 8 28 Z" fill="#00BCD4"/>
  <path d="M12 26 L12 14 Q12 12 14 12 L16 12 Q18 12 18 14 L18 26 Q18 28 16 28 L14 28 Q12 28 12 26 Z" fill="#E91E63"/>
  <path d="M16 24 L16 12 Q16 10 18 10 L20 10 Q22 10 22 12 L22 24 Q22 26 20 26 L18 26 Q16 26 16 24 Z" fill="#FF9800"/>
  <path d="M20 26 L20 14 Q20 12 22 12 L24 12 Q26 12 26 14 L26 26 Q26 28 24 28 L22 28 Q20 28 20 26 Z" fill="#2196F3"/>
  <path d="M24 28 L24 16 Q24 14 26 14 L28 14 Q30 14 30 16 L30 28 Q30 30 28 30 L26 30 Q24 30 24 28 Z" fill="#4CAF50"/>
</svg>
