<svg xmlns="http://www.w3.org/2000/svg" viewBox="0 0 1200 675" width="1200" height="675">
  <defs>
    <linearGradient id="bg4" x1="0%" y1="0%" x2="100%" y2="100%">
      <stop offset="0%" style="stop-color:#7B1FA2;stop-opacity:1" />
      <stop offset="100%" style="stop-color:#9C27B0;stop-opacity:1" />
    </linearGradient>
  </defs>
  
  <!-- Background -->
  <rect width="1200" height="675" fill="url(#bg4)"/>
  
  <!-- Confetti -->
  <rect x="100" y="80" width="15" height="15" fill="#FF9800" transform="rotate(30 107 87)"/>
  <rect x="200" y="150" width="12" height="12" fill="#4CAF50" transform="rotate(45 206 156)"/>
  <rect x="300" y="60" width="18" height="18" fill="#E91E63" transform="rotate(15 309 69)"/>
  <rect x="450" y="120" width="14" height="14" fill="#00BCD4" transform="rotate(60 457 127)"/>
  <rect x="700" y="80" width="16" height="16" fill="#FFEB3B" transform="rotate(25 708 88)"/>
  <rect x="850" y="140" width="12" height="12" fill="#4CAF50" transform="rotate(50 856 146)"/>
  <rect x="950" y="70" width="15" height="15" fill="#FF9800" transform="rotate(35 957 77)"/>
  <rect x="1050" y="130" width="14" height="14" fill="#E91E63" transform="rotate(70 1057 137)"/>
  <circle cx="150" cy="200" r="8" fill="#FFEB3B"/>
  <circle cx="350" cy="180" r="6" fill="#00BCD4"/>
  <circle cx="550" cy="150" r="7" fill="#FF9800"/>
  <circle cx="750" cy="170" r="8" fill="#4CAF50"/>
  <circle cx="1000" cy="200" r="6" fill="#E91E63"/>
  
  <!-- Graduation Cap -->
  <g transform="translate(480, 140)">
    <!-- Cap base -->
    <polygon points="120,80 0,130 120,180 240,130" fill="#212121"/>
    <!-- Cap top -->
    <rect x="60" y="40" width="120" height="50" fill="#212121"/>
    <rect x="50" y="85" width="140" height="10" fill="#424242"/>
    <!-- Button -->
    <circle cx="120" cy="50" r="12" fill="#424242"/>
    <!-- Tassel -->
    <line x1="120" y1="50" x2="200" y2="50" stroke="#FFD700" stroke-width="3"/>
    <line x1="200" y1="50" x2="200" y2="130" stroke="#FFD700" stroke-width="3"/>
    <rect x="190" y="130" width="20" height="30" fill="#FFD700"/>
    <path d="M190,160 L200,180 L210,160" fill="#FFD700"/>
  </g>
  
  <!-- Balloons -->
  <g transform="translate(200, 200)">
    <ellipse cx="0" cy="0" rx="40" ry="50" fill="#E91E63"/>
    <polygon points="-5,50 5,50 0,65" fill="#C2185B"/>
    <line x1="0" y1="65" x2="0" y2="150" stroke="#9E9E9E" stroke-width="2"/>
    <ellipse cx="-15" cy="-15" rx="10" ry="15" fill="rgba(255,255,255,0.3)"/>
  </g>
  <g transform="translate(950, 180)">
    <ellipse cx="0" cy="0" rx="40" ry="50" fill="#4CAF50"/>
    <polygon points="-5,50 5,50 0,65" fill="#388E3C"/>
    <line x1="0" y1="65" x2="0" y2="160" stroke="#9E9E9E" stroke-width="2"/>
    <ellipse cx="-15" cy="-15" rx="10" ry="15" fill="rgba(255,255,255,0.3)"/>
  </g>
  <g transform="translate(150, 300)">
    <ellipse cx="0" cy="0" rx="35" ry="45" fill="#FF9800"/>
    <polygon points="-5,45 5,45 0,58" fill="#F57C00"/>
    <line x1="0" y1="58" x2="0" y2="130" stroke="#9E9E9E" stroke-width="2"/>
    <ellipse cx="-12" cy="-12" rx="8" ry="12" fill="rgba(255,255,255,0.3)"/>
  </g>
  <g transform="translate(1000, 280)">
    <ellipse cx="0" cy="0" rx="35" ry="45" fill="#00BCD4"/>
    <polygon points="-5,45 5,45 0,58" fill="#0097A7"/>
    <line x1="0" y1="58" x2="0" y2="140" stroke="#9E9E9E" stroke-width="2"/>
    <ellipse cx="-12" cy="-12" rx="8" ry="12" fill="rgba(255,255,255,0.3)"/>
  </g>
  
  <!-- Stars -->
  <polygon points="600,100 608,125 635,125 614,140 622,165 600,150 578,165 586,140 565,125 592,125" fill="#FFD700"/>
  <polygon points="400,250 405,265 420,265 408,275 413,290 400,280 387,290 392,275 380,265 395,265" fill="#FFEB3B" opacity="0.8"/>
  <polygon points="800,230 805,245 820,245 808,255 813,270 800,260 787,270 792,255 780,245 795,245" fill="#FFEB3B" opacity="0.8"/>
  
  <!-- Text -->
  <text x="600" y="450" font-family="system-ui, -apple-system, sans-serif" font-size="48" font-weight="bold" fill="white" text-anchor="middle">
    🎓 Abschlussfeier
  </text>
  <text x="600" y="510" font-family="system-ui, -apple-system, sans-serif" font-size="24" fill="rgba(255,255,255,0.9)" text-anchor="middle">
    Tschüss, 4. Klassen!
  </text>
  
  <!-- Placeholder notice -->
  <rect x="400" y="580" width="400" height="40" rx="20" fill="rgba(0,0,0,0.3)"/>
  <text x="600" y="607" font-family="system-ui, sans-serif" font-size="16" fill="white" text-anchor="middle">
    📷 Platzhalter – Echtes Foto einfügen
  </text>
</svg>